<?xml version="1.0" encoding="UTF-8" standalone="no"?>
<!DOCTYPE svg PUBLIC "-//W3C//DTD SVG 1.1//EN" "http://www.w3.org/Graphics/SVG/1.1/DTD/svg11.dtd">
<svg width="100%" height="100%" viewBox="0 0 1000 1000" version="1.1" xmlns="http://www.w3.org/2000/svg" xmlns:xlink="http://www.w3.org/1999/xlink" xml:space="preserve" xmlns:serif="http://www.serif.com/" style="fill-rule:evenodd;clip-rule:evenodd;stroke-linecap:round;stroke-linejoin:round;stroke-miterlimit:1.5;">
    <rect x="0" y="0" width="1000" height="1000" style="fill:none;"/>
    <g transform="matrix(0.707107,-0.707107,0.707107,0.707107,-210.642315,503.535534)">
        <g transform="matrix(1.846886,0,0,1.846886,-522.461415,-476.384415)">
            <circle cx="556.321" cy="528.665" r="222.074" style="fill:white;"/>
        </g>
        <g transform="matrix(1.438212,0,0,1.045683,-123.716761,-25.673496)">
            <path d="M774.245,401.491L774.245,603.926C774.245,625.918 761.264,643.772 745.274,643.772L129.029,643.772C113.039,643.772 100.058,625.918 100.058,603.926L100.058,401.491C100.058,379.499 113.039,361.645 129.029,361.645L745.274,361.645C761.264,361.645 774.245,379.499 774.245,401.491Z" style="fill:white;"/>
        </g>
        <g transform="matrix(-0.766852,-0,0,-1.216162,750.170423,1090.877877)">
            <path d="M710.192,397.65L902.442,397.65" style="fill:none;stroke:black;stroke-width:40.98px;"/>
        </g>
        <g transform="matrix(-0.947372,-0,0,-1.216162,913.100915,1019.363534)">
            <path d="M715.909,397.65L902.442,397.65" style="fill:none;stroke:black;stroke-width:38.22px;"/>
        </g>
        <g transform="matrix(-0.364476,-0,0,-1.216162,387.07064,947.849191)">
            <path d="M740.192,397.65L902.442,397.65" style="fill:none;stroke:black;stroke-width:46.41px;"/>
        </g>
        <g transform="matrix(-0.28547,-0,0,-1.216162,423.166565,947.849191)">
            <path d="M659.604,397.65L902.442,397.65" style="fill:none;stroke:black;stroke-width:47.17px;"/>
        </g>
        <g transform="matrix(-0.766852,-0,0,-1.216162,750.170423,876.334848)">
            <path d="M710.192,397.65L902.442,397.65" style="fill:none;stroke:black;stroke-width:40.98px;"/>
        </g>
        <g transform="matrix(-0.734963,-0,0,-1.216162,1495.883033,1090.877877)">
            <path d="M740.192,397.65L942.442,397.65" style="fill:none;stroke:black;stroke-width:41.47px;"/>
        </g>
        <g transform="matrix(-0.907976,-0,0,-1.216162,1623.925093,1019.363534)">
            <path d="M740.192,397.65L934.82,397.65" style="fill:none;stroke:black;stroke-width:38.83px;"/>
        </g>
        <g transform="matrix(-0.907976,-0,0,-1.216162,1623.925093,947.849191)">
            <path d="M740.192,397.65L934.82,397.65" style="fill:none;stroke:black;stroke-width:38.83px;"/>
        </g>
        <g transform="matrix(-0.734963,-0,0,-1.216162,1495.883033,876.334848)">
            <path d="M740.192,397.65L942.442,397.65" style="fill:none;stroke:black;stroke-width:41.47px;"/>
        </g>
        <g transform="matrix(0.775318,1.342891,-1.342891,0.775318,688.899736,-611.345374)">
            <g transform="matrix(0,0.78959,-0.396955,0,625.088585,32.19469)">
                <path d="M536.165,454.208L602.66,587.198L469.67,587.198L536.165,454.208Z"/>
                <path d="M548.229,430.341L614.725,563.331C619.572,573.025 621.011,587.569 618.371,600.193C615.732,612.818 609.534,621.044 602.66,621.044L469.67,621.044C462.796,621.044 456.597,612.818 453.958,600.193C451.319,587.569 452.758,573.025 457.605,563.331L524.1,430.341C527.294,423.953 531.636,420.362 536.165,420.362C540.694,420.362 545.036,423.953 548.229,430.341ZM536.165,454.208L469.67,587.198L602.66,587.198L536.165,454.208Z"/>
            </g>
            <g transform="matrix(0.78871,0,0,1,102.497207,-1.049988)">
                <path d="M433.988,456.595L671.893,456.595C693.649,456.595 711.313,470.526 711.313,487.685C711.313,504.845 693.649,518.776 671.893,518.776L504.955,518.776C494.899,518.776 485.718,515.8 478.751,510.904" style="fill:none;stroke:black;stroke-width:29.84px;"/>
            </g>
            <g transform="matrix(0.487631,-0,0,1,407.566904,-8.697707)">
                <path d="M619.602,464.243L676.254,464.243" style="fill:none;stroke:black;stroke-width:34.16px;"/>
            </g>
            <g transform="matrix(1.093628,-1.093628,1.26234,1.26234,-581.933532,500.545159)">
                <ellipse cx="542.472" cy="396.353" rx="13.47" ry="11.67"/>
            </g>
            <g transform="matrix(1.093628,-1.093628,1.26234,1.26234,-530.527459,499.707363)">
                <ellipse cx="542.472" cy="396.353" rx="13.47" ry="11.67"/>
            </g>
            <g transform="matrix(1.093628,-1.093628,1.26234,1.26234,-479.402184,499.150365)">
                <ellipse cx="542.472" cy="396.353" rx="13.47" ry="11.67"/>
            </g>
        </g>
        <g transform="matrix(1.526271,0,0,1.526271,-140.593427,26.569849)">
            <path d="M204.564,419.141C245.87,501.948 330.45,554.277 422.988,554.277C515.525,554.277 600.105,501.948 641.411,419.141C600.105,501.948 515.525,554.277 422.988,554.277C330.45,554.277 245.87,501.948 204.564,419.141Z" style="fill:none;stroke:black;stroke-width:27.3px;"/>
        </g>
        <g transform="matrix(-1.526271,0,-0,-1.526271,1150.593427,973.430151)">
            <path d="M204.564,419.141C245.87,501.948 330.45,554.277 422.988,554.277C515.525,554.277 600.105,501.948 641.411,419.141C600.105,501.948 515.525,554.277 422.988,554.277C330.45,554.277 245.87,501.948 204.564,419.141Z" style="fill:none;stroke:black;stroke-width:27.3px;"/>
        </g>
    </g>
</svg>
